<svg xmlns="http://www.w3.org/2000/svg" version="1.1" xmlns:xlink="http://www.w3.org/1999/xlink" xmlns:svgjs="http://svgjs.dev/svgjs" width="1500" height="507" viewBox="0 0 1500 507"><g transform="matrix(1,0,0,1,-0.9090909090909918,-0.09298959947852836)"><svg viewBox="0 0 396 134" data-background-color="#000000" preserveAspectRatio="xMidYMid meet" height="507" width="1500" xmlns="http://www.w3.org/2000/svg" xmlns:xlink="http://www.w3.org/1999/xlink"><g id="tight-bounds" transform="matrix(1,0,0,1,0.2400000000000091,0.0245771328010278)"><svg viewBox="0 0 395.52 133.95084573439794" height="133.95084573439794" width="395.52"><g><svg viewBox="0 0 397.4975999999999 134.6205999630699" height="133.95084573439794" width="395.52"><g><svg viewBox="0 0 397.4975999999999 134.6205999630699" height="134.6205999630699" width="397.4975999999999"><g id="textblocktransform"><svg viewBox="0 0 397.4975999999999 134.6205999630699" height="134.6205999630699" width="397.4975999999999" id="textblock"><g></g><g transform="matrix(1,0,0,1,0.9887999999999693,0)"><svg viewBox="0 0 395.52 81.7898970427163" height="81.7898970427163" width="395.52"><g transform="matrix(1,0,0,1,0,0)"><svg width="395.52" viewBox="1.05 -37.5 228.23 47.199999999999996" height="81.7898970427163" data-palette-color="url(#ed1c8265-0371-4860-9033-1a30be41342d)"></svg></g></svg></g><g transform="matrix(1,0,0,1,0,106.54356292603289)"><svg viewBox="0 0 395.52 28.077037037037037" height="28.077037037037037" width="395.52"><g transform="matrix(1,0,0,1,0,0)"><svg width="395.52" viewBox="2.15 -36 647.94 46" height="28.077037037037037" data-palette-color="url(#494e4d9b-218e-49f9-a06a-be4b97f8c72c)"></svg></g></svg></g></svg></g></svg></g></svg></g><defs></defs><mask id="e2238aeb-8685-452b-b435-de9f05f5929d"><g id="SvgjsG9243"><svg viewBox="0 0 395.52 133.95084573439794" height="133.95084573439794" width="395.52"><g><svg viewBox="0 0 397.4975999999999 134.6205999630699" height="133.95084573439794" width="395.52"><g><svg viewBox="0 0 397.4975999999999 134.6205999630699" height="134.6205999630699" width="397.4975999999999"><g id="SvgjsG9242"><svg viewBox="0 0 397.4975999999999 134.6205999630699" height="134.6205999630699" width="397.4975999999999" id="SvgjsSvg9241"><g><rect width="397.4975999999999" height="7.375897322485905" x="0" y="90.47878132313164" fill="white" opacity="1" stroke-width="0" stroke="transparent" fill-opacity="1" class="rect-yte-0" rx="1%" id="SvgjsRect9240" data-palette-color="url(#ed1c8265-0371-4860-9033-1a30be41342d)"></rect></g><g transform="matrix(1,0,0,1,0.9887999999999693,0)"><svg viewBox="0 0 395.52 81.7898970427163" height="81.7898970427163" width="395.52"><g transform="matrix(1,0,0,1,0,0)"><svg width="395.52" viewBox="1.05 -37.5 228.23 47.199999999999996" height="81.7898970427163" data-palette-color="url(#ed1c8265-0371-4860-9033-1a30be41342d)"><path d="M21.5-24.15L19.4-20.1Q17.65-21.15 15.58-21.78 13.5-22.4 11.75-22.4L11.75-22.4Q10.05-22.4 8.95-21.75 7.85-21.1 7.85-19.6L7.85-19.6Q7.85-18.35 8.88-17.63 9.9-16.9 11.5-16.4 13.1-15.9 14.9-15.35 16.7-14.8 18.32-13.93 19.95-13.05 20.95-11.55 21.95-10.05 21.95-7.6L21.95-7.6Q21.95-4.9 20.53-3.18 19.1-1.45 16.78-0.63 14.45 0.2 11.75 0.2L11.75 0.2Q8.85 0.2 5.95-0.75 3.05-1.7 1.05-3.5L1.05-3.5 3.1-7.4Q4.85-5.85 7.35-4.98 9.85-4.1 12-4.1L12-4.1Q13.25-4.1 14.23-4.42 15.2-4.75 15.78-5.4 16.35-6.05 16.35-7.1L16.35-7.1Q16.35-8.5 15.35-9.3 14.35-10.1 12.75-10.63 11.15-11.15 9.35-11.68 7.55-12.2 5.98-13.05 4.4-13.9 3.4-15.35 2.4-16.8 2.4-19.2L2.4-19.2Q2.4-21.9 3.8-23.58 5.2-25.25 7.43-26.03 9.65-26.8 12.2-26.8L12.2-26.8Q14.7-26.8 17.2-26.1 19.7-25.4 21.5-24.15L21.5-24.15ZM47.75 0L47.75-15Q47.75-18.1 46.05-19.88 44.35-21.65 41.35-21.65L41.35-21.65Q37.8-21.6 35.77-19.15 33.75-16.7 33.75-13.05L33.75-13.05 32.15-13.05Q32.15-18 33.55-21 34.95-24 37.52-25.38 40.1-26.75 43.6-26.75L43.6-26.75Q46.7-26.75 48.92-25.5 51.15-24.25 52.32-21.98 53.5-19.7 53.5-16.5L53.5-16.5 53.5 0 47.75 0ZM28 0L28-37.1 33.75-37.1 33.75 0 28 0ZM72.6-26.75L72.6-26.75Q76.7-26.75 79.82-25.05 82.95-23.35 84.7-20.33 86.45-17.3 86.45-13.3L86.45-13.3Q86.45-9.3 84.7-6.25 82.95-3.2 79.82-1.5 76.7 0.2 72.6 0.2L72.6 0.2Q68.5 0.2 65.35-1.5 62.2-3.2 60.45-6.25 58.7-9.3 58.7-13.3L58.7-13.3Q58.7-17.3 60.45-20.33 62.2-23.35 65.35-25.05 68.5-26.75 72.6-26.75ZM72.6-22.1L72.6-22.1Q70.2-22.1 68.35-20.98 66.5-19.85 65.47-17.85 64.45-15.85 64.45-13.25L64.45-13.25Q64.45-10.6 65.47-8.6 66.5-6.6 68.35-5.48 70.2-4.35 72.6-4.35L72.6-4.35Q75-4.35 76.82-5.48 78.65-6.6 79.67-8.6 80.7-10.6 80.7-13.25L80.7-13.25Q80.7-15.85 79.67-17.85 78.65-19.85 76.82-20.98 75-22.1 72.6-22.1ZM107.74-26.75L107.74-26.75Q111.54-26.75 114.39-25.05 117.24-23.35 118.84-20.3 120.44-17.25 120.44-13.2L120.44-13.2Q120.44-9.25 118.87-6.23 117.29-3.2 114.47-1.5 111.64 0.2 107.84 0.2L107.84 0.2Q104.19 0.2 101.62-1.4 99.04-3 97.69-6.03 96.34-9.05 96.34-13.2L96.34-13.2Q96.34-17.5 97.69-20.53 99.04-23.55 101.62-25.15 104.19-26.75 107.74-26.75ZM106.54-22.2L106.54-22.2Q104.19-22.2 102.34-21.05 100.49-19.9 99.47-17.93 98.44-15.95 98.44-13.35L98.44-13.35Q98.44-10.75 99.47-8.72 100.49-6.7 102.34-5.58 104.19-4.45 106.54-4.45L106.54-4.45Q108.94-4.45 110.77-5.6 112.59-6.75 113.62-8.75 114.64-10.75 114.64-13.35L114.64-13.35Q114.64-15.9 113.62-17.9 112.59-19.9 110.77-21.05 108.94-22.2 106.54-22.2ZM92.69 9.7L92.69-26.55 98.44-26.55 98.44 9.7 92.69 9.7ZM126.69 0L126.69-37.1 132.44-37.1 132.44 0 126.69 0ZM141.19 0L141.19-26.55 146.89-26.55 146.89 0 141.19 0ZM144.04-37.5L144.04-37.5Q145.49-37.5 146.44-36.55 147.39-35.6 147.39-34.15L147.39-34.15Q147.39-32.75 146.44-31.78 145.49-30.8 144.04-30.8L144.04-30.8Q142.64-30.8 141.66-31.78 140.69-32.75 140.69-34.15L140.69-34.15Q140.69-35.6 141.66-36.55 142.64-37.5 144.04-37.5ZM161.23-13.6L152.48-26.55 159.08-26.55 165.03-17.25 171.08-26.55 177.38-26.55 168.83-13.6 177.98 0 171.38 0 165.03-9.95 158.23 0 151.83 0 161.23-13.6ZM194.48-26.75L194.48-26.75Q198.58-26.75 201.71-25.05 204.83-23.35 206.58-20.33 208.33-17.3 208.33-13.3L208.33-13.3Q208.33-9.3 206.58-6.25 204.83-3.2 201.71-1.5 198.58 0.2 194.48 0.2L194.48 0.2Q190.38 0.2 187.23-1.5 184.08-3.2 182.33-6.25 180.58-9.3 180.58-13.3L180.58-13.3Q180.58-17.3 182.33-20.33 184.08-23.35 187.23-25.05 190.38-26.75 194.48-26.75ZM194.48-22.1L194.48-22.1Q192.08-22.1 190.23-20.98 188.38-19.85 187.36-17.85 186.33-15.85 186.33-13.25L186.33-13.25Q186.33-10.6 187.36-8.6 188.38-6.6 190.23-5.48 192.08-4.35 194.48-4.35L194.48-4.35Q196.88-4.35 198.71-5.48 200.53-6.6 201.56-8.6 202.58-10.6 202.58-13.25L202.58-13.25Q202.58-15.85 201.56-17.85 200.53-19.85 198.71-20.98 196.88-22.1 194.48-22.1ZM229.28-26.75L229.28-21.55Q226.43-21.7 224.35-20.58 222.28-19.45 221.15-17.45 220.03-15.45 220.03-12.85L220.03-12.85 218.43-13.05Q218.43-17.5 219.73-20.55 221.03-23.6 223.48-25.18 225.93-26.75 229.28-26.75L229.28-26.75ZM214.33 0L214.33-26.55 220.08-26.55 220.08 0 214.33 0Z" opacity="1" transform="matrix(1,0,0,1,0,0)" fill="white" class="wordmark-text-0" id="SvgjsPath9239"></path></svg></g></svg></g><g transform="matrix(1,0,0,1,0,106.54356292603289)"><svg viewBox="0 0 395.52 28.077037037037037" height="28.077037037037037" width="395.52"><g transform="matrix(1,0,0,1,0,0)"><svg width="395.52" viewBox="2.15 -36 647.94 46" height="28.077037037037037" data-palette-color="url(#494e4d9b-218e-49f9-a06a-be4b97f8c72c)"><path d="M35.15-25.8L31.65-24.5Q29.75-28.25 26.6-30.03 23.45-31.8 19.6-31.8L19.6-31.8Q15.8-31.8 12.75-30.05 9.7-28.3 7.95-25.1 6.2-21.9 6.2-17.5L6.2-17.5Q6.2-13.15 7.95-9.95 9.7-6.75 12.75-5 15.8-3.25 19.6-3.25L19.6-3.25Q22.45-3.25 24.9-4.23 27.35-5.2 29.15-7.03 30.95-8.85 31.9-11.4L31.9-11.4 31.9-15.45 19.9-15.45 19.9-18.7 35.95-18.7 35.95-11.2Q34.8-7.85 32.45-5.25 30.1-2.65 26.8-1.15 23.5 0.35 19.6 0.35L19.6 0.35Q15.9 0.35 12.73-0.95 9.55-2.25 7.18-4.63 4.8-7 3.48-10.28 2.15-13.55 2.15-17.5L2.15-17.5Q2.15-21.45 3.48-24.73 4.8-28 7.18-30.38 9.55-32.75 12.73-34.05 15.9-35.35 19.6-35.35L19.6-35.35Q23.05-35.35 26.08-34.23 29.1-33.1 31.45-30.98 33.8-28.85 35.15-25.8L35.15-25.8ZM61.45 0L58 0 57.7-4.5Q56.65-2.2 54.6-0.93 52.55 0.35 49.4 0.35L49.4 0.35Q46.7 0.35 44.8-0.5 42.9-1.35 41.87-2.93 40.85-4.5 40.85-6.65L40.85-6.65Q40.85-9.8 43.2-11.83 45.55-13.85 50-14.3L50-14.3 57.7-15.15 57.7-17.15Q57.7-19.25 56.15-20.53 54.6-21.8 51.95-21.8L51.95-21.8Q49.35-21.8 47.62-20.6 45.9-19.4 45.25-17.15L45.25-17.15 41.85-18.35Q42.85-21.65 45.52-23.5 48.2-25.35 52.05-25.35L52.05-25.35Q56.5-25.35 58.97-23.08 61.45-20.8 61.45-16.9L61.45-16.9 61.45 0ZM57.7-11.15L57.7-11.95 49.95-11.05Q47.45-10.75 46.15-9.68 44.85-8.6 44.85-6.85L44.85-6.85Q44.85-5.1 46.12-4.05 47.4-3 49.8-3L49.8-3Q52.55-3 54.3-4.1 56.05-5.2 56.87-7.08 57.7-8.95 57.7-11.15L57.7-11.15ZM66.6-25L70.35-25 70.35-32 74.1-32 74.1-25 80.75-25 80.75-21.5 74.1-21.5 74.1-8.05Q74.1-5.75 75.07-4.7 76.05-3.65 77.57-3.45 79.1-3.25 80.75-3.45L80.75-3.45 80.75-0.2Q78.8 0.25 76.92 0.05 75.05-0.15 73.57-1.07 72.1-2 71.22-3.7 70.35-5.4 70.35-8.05L70.35-8.05 70.35-21.5 66.6-21.5 66.6-25ZM96.84 0.35L96.84 0.35Q93.34 0.35 90.62-1.35 87.89-3.05 86.34-6 84.79-8.95 84.79-12.75L84.79-12.75Q84.79-16.4 86.34-19.25 87.89-22.1 90.59-23.73 93.29-25.35 96.74-25.35L96.74-25.35Q100.14-25.35 102.82-23.85 105.49-22.35 106.99-19.7 108.49-17.05 108.39-13.65L108.39-13.65Q108.39-13.1 108.34-12.5 108.29-11.9 108.24-11.2L108.24-11.2 88.89-11.2Q88.99-8.85 90.04-7.05 91.09-5.25 92.82-4.23 94.54-3.2 96.74-3.2L96.74-3.2Q99.64-3.2 101.67-4.3 103.69-5.4 104.59-7.45L104.59-7.45 107.84-6.15Q106.34-3 103.49-1.33 100.64 0.35 96.84 0.35ZM88.94-14.45L104.29-14.45Q104.34-16.6 103.37-18.25 102.39-19.9 100.64-20.85 98.89-21.8 96.59-21.8L96.59-21.8Q94.59-21.8 92.94-20.85 91.29-19.9 90.22-18.23 89.14-16.55 88.94-14.45L88.94-14.45ZM129.09-19.4L122.74 0 119.34 0 111.49-25 115.29-25 121.04-4.65 127.49-25 130.89-25 137.24-4.7 142.94-25 146.64-25 138.84 0 135.39 0 129.09-19.4ZM170.34 0L166.89 0 166.59-4.5Q165.54-2.2 163.49-0.93 161.44 0.35 158.29 0.35L158.29 0.35Q155.59 0.35 153.69-0.5 151.79-1.35 150.76-2.93 149.74-4.5 149.74-6.65L149.74-6.65Q149.74-9.8 152.09-11.83 154.44-13.85 158.89-14.3L158.89-14.3 166.59-15.15 166.59-17.15Q166.59-19.25 165.04-20.53 163.49-21.8 160.84-21.8L160.84-21.8Q158.24-21.8 156.51-20.6 154.79-19.4 154.14-17.15L154.14-17.15 150.74-18.35Q151.74-21.65 154.41-23.5 157.09-25.35 160.94-25.35L160.94-25.35Q165.39-25.35 167.86-23.08 170.34-20.8 170.34-16.9L170.34-16.9 170.34 0ZM166.59-11.15L166.59-11.95 158.84-11.05Q156.34-10.75 155.04-9.68 153.74-8.6 153.74-6.85L153.74-6.85Q153.74-5.1 155.01-4.05 156.29-3 158.69-3L158.69-3Q161.44-3 163.19-4.1 164.94-5.2 165.76-7.08 166.59-8.95 166.59-11.15L166.59-11.15ZM186.24-4.8L193.99-25 197.89-25 183.59 10 179.99 10 184.24-0.35 174.14-25 178.24-25 186.24-4.8ZM214.53-25L218.28-25 218.28-32 222.03-32 222.03-25 228.68-25 228.68-21.5 222.03-21.5 222.03-8.05Q222.03-5.75 223.01-4.7 223.98-3.65 225.51-3.45 227.03-3.25 228.68-3.45L228.68-3.45 228.68-0.2Q226.73 0.25 224.86 0.05 222.98-0.15 221.51-1.07 220.03-2 219.16-3.7 218.28-5.4 218.28-8.05L218.28-8.05 218.28-21.5 214.53-21.5 214.53-25ZM245.08 0.35L245.08 0.35Q241.53 0.35 238.73-1.2 235.93-2.75 234.33-5.63 232.73-8.5 232.73-12.45L232.73-12.45Q232.73-16.45 234.35-19.35 235.98-22.25 238.8-23.8 241.63-25.35 245.18-25.35L245.18-25.35Q248.73-25.35 251.55-23.8 254.38-22.25 256-19.38 257.63-16.5 257.63-12.55L257.63-12.55Q257.63-8.55 255.98-5.65 254.33-2.75 251.48-1.2 248.63 0.35 245.08 0.35ZM245.03-3.2L245.03-3.2Q247.23-3.2 249.18-4.17 251.13-5.15 252.35-7.23 253.58-9.3 253.58-12.5L253.58-12.5Q253.58-15.75 252.38-17.8 251.18-19.85 249.25-20.83 247.33-21.8 245.13-21.8L245.13-21.8Q242.93-21.8 241.03-20.83 239.13-19.85 237.95-17.78 236.78-15.7 236.78-12.5L236.78-12.5Q236.78-9.25 237.93-7.2 239.08-5.15 240.95-4.17 242.83-3.2 245.03-3.2ZM309.07-25.8L305.57-24.5Q303.67-28.25 300.52-30.03 297.37-31.8 293.52-31.8L293.52-31.8Q289.72-31.8 286.67-30.05 283.62-28.3 281.87-25.1 280.12-21.9 280.12-17.5L280.12-17.5Q280.12-13.15 281.87-9.95 283.62-6.75 286.67-5 289.72-3.25 293.52-3.25L293.52-3.25Q296.37-3.25 298.82-4.23 301.27-5.2 303.07-7.03 304.87-8.85 305.82-11.4L305.82-11.4 305.82-15.45 293.82-15.45 293.82-18.7 309.87-18.7 309.87-11.2Q308.72-7.85 306.37-5.25 304.02-2.65 300.72-1.15 297.42 0.35 293.52 0.35L293.52 0.35Q289.82 0.35 286.65-0.95 283.47-2.25 281.1-4.63 278.72-7 277.4-10.28 276.07-13.55 276.07-17.5L276.07-17.5Q276.07-21.45 277.4-24.73 278.72-28 281.1-30.38 283.47-32.75 286.65-34.05 289.82-35.35 293.52-35.35L293.52-35.35Q296.97-35.35 300-34.23 303.02-33.1 305.37-30.98 307.72-28.85 309.07-25.8L309.07-25.8ZM316.27 0L316.27-36 320.02-36 320.02 0 316.27 0ZM338.47 0.35L338.47 0.35Q334.92 0.35 332.12-1.2 329.32-2.75 327.72-5.63 326.12-8.5 326.12-12.45L326.12-12.45Q326.12-16.45 327.74-19.35 329.37-22.25 332.19-23.8 335.02-25.35 338.57-25.35L338.57-25.35Q342.12-25.35 344.94-23.8 347.77-22.25 349.39-19.38 351.02-16.5 351.02-12.55L351.02-12.55Q351.02-8.55 349.37-5.65 347.72-2.75 344.87-1.2 342.02 0.35 338.47 0.35ZM338.42-3.2L338.42-3.2Q340.62-3.2 342.57-4.17 344.52-5.15 345.74-7.23 346.97-9.3 346.97-12.5L346.97-12.5Q346.97-15.75 345.77-17.8 344.57-19.85 342.64-20.83 340.72-21.8 338.52-21.8L338.52-21.8Q336.32-21.8 334.42-20.83 332.52-19.85 331.34-17.78 330.17-15.7 330.17-12.5L330.17-12.5Q330.17-9.25 331.32-7.2 332.47-5.15 334.34-4.17 336.22-3.2 338.42-3.2ZM360.92-19.9L360.51-19.95Q361.62-22.25 363.96-23.8 366.31-25.35 369.92-25.35L369.92-25.35Q373.37-25.35 375.94-23.75 378.51-22.15 379.94-19.28 381.37-16.4 381.37-12.5L381.37-12.5Q381.37-8.6 379.92-5.7 378.46-2.8 375.89-1.23 373.31 0.35 369.92 0.35L369.92 0.35Q366.51 0.35 364.26-1.1 362.01-2.55 360.87-4.65L360.87-4.65 360.62 0 357.17 0 357.17-36 360.92-36 360.92-19.9ZM377.31-12.5L377.31-12.5Q377.31-16.8 375.09-19.33 372.87-21.85 369.12-21.85L369.12-21.85Q366.76-21.85 364.89-20.73 363.01-19.6 361.96-17.53 360.92-15.45 360.92-12.5L360.92-12.5Q360.92-9.55 361.96-7.45 363.01-5.35 364.89-4.25 366.76-3.15 369.12-3.15L369.12-3.15Q372.87-3.15 375.09-5.68 377.31-8.2 377.31-12.5ZM406.56 0L403.11 0 402.81-4.5Q401.76-2.2 399.71-0.93 397.66 0.35 394.51 0.35L394.51 0.35Q391.81 0.35 389.91-0.5 388.01-1.35 386.99-2.93 385.96-4.5 385.96-6.65L385.96-6.65Q385.96-9.8 388.31-11.83 390.66-13.85 395.11-14.3L395.11-14.3 402.81-15.15 402.81-17.15Q402.81-19.25 401.26-20.53 399.71-21.8 397.06-21.8L397.06-21.8Q394.46-21.8 392.74-20.6 391.01-19.4 390.36-17.15L390.36-17.15 386.96-18.35Q387.96-21.65 390.64-23.5 393.31-25.35 397.16-25.35L397.16-25.35Q401.61-25.35 404.09-23.08 406.56-20.8 406.56-16.9L406.56-16.9 406.56 0ZM402.81-11.15L402.81-11.95 395.06-11.05Q392.56-10.75 391.26-9.68 389.96-8.6 389.96-6.85L389.96-6.85Q389.96-5.1 391.24-4.05 392.51-3 394.91-3L394.91-3Q397.66-3 399.41-4.1 401.16-5.2 401.99-7.08 402.81-8.95 402.81-11.15L402.81-11.15ZM413.86 0L413.86-36 417.61-36 417.61 0 413.86 0ZM437.95-7.45L441.6-8.9Q441.9-7.55 442.88-6.23 443.85-4.9 445.58-4.03 447.3-3.15 450-3.15L450-3.15Q453.85-3.15 455.7-4.95 457.55-6.75 457.55-9.2L457.55-9.2Q457.55-11.15 456.5-12.4 455.45-13.65 453.65-14.48 451.85-15.3 449.6-15.95L449.6-15.95Q447.6-16.5 445.63-17.18 443.65-17.85 442.05-18.88 440.45-19.9 439.5-21.55 438.55-23.2 438.55-25.65L438.55-25.65Q438.55-28.6 439.95-30.78 441.35-32.95 443.9-34.15 446.45-35.35 449.85-35.35L449.85-35.35Q452.8-35.35 455-34.5 457.2-33.65 458.68-32.13 460.15-30.6 460.85-28.6L460.85-28.6 457.3-27.25Q456.95-28.4 455.95-29.48 454.95-30.55 453.35-31.25 451.75-31.95 449.7-31.95L449.7-31.95Q447.7-31.95 446.08-31.25 444.45-30.55 443.5-29.25 442.55-27.95 442.55-26.1L442.55-26.1Q442.55-24.1 443.68-22.93 444.8-21.75 446.68-21.03 448.55-20.3 450.8-19.65L450.8-19.65Q452.85-19 454.78-18.25 456.7-17.5 458.23-16.4 459.75-15.3 460.65-13.65 461.55-12 461.55-9.6L461.55-9.6Q461.55-6.95 460.3-4.67 459.05-2.4 456.53-1.03 454 0.35 450.05 0.35L450.05 0.35Q446.75 0.35 444.25-0.68 441.75-1.7 440.15-3.45 438.55-5.2 437.95-7.45L437.95-7.45ZM467.95 0L467.95-36 471.7-36 471.7-21.6Q472.9-23.4 474.95-24.38 477-25.35 479.55-25.35L479.55-25.35Q482.3-25.35 484.45-24.1 486.6-22.85 487.83-20.4 489.05-17.95 489.05-14.3L489.05-14.3 489.05 0 485.05 0 485.05-13.85Q485.05-17.75 483.4-19.83 481.75-21.9 478.6-21.9L478.6-21.9Q475.35-21.9 473.53-19.7 471.7-17.5 471.7-13.3L471.7-13.3 471.7 0 467.95 0ZM507.1 0.35L507.1 0.35Q503.55 0.35 500.75-1.2 497.95-2.75 496.35-5.63 494.75-8.5 494.75-12.45L494.75-12.45Q494.75-16.45 496.38-19.35 498-22.25 500.82-23.8 503.65-25.35 507.2-25.35L507.2-25.35Q510.75-25.35 513.58-23.8 516.4-22.25 518.02-19.38 519.65-16.5 519.65-12.55L519.65-12.55Q519.65-8.55 518-5.65 516.35-2.75 513.5-1.2 510.65 0.35 507.1 0.35ZM507.05-3.2L507.05-3.2Q509.25-3.2 511.2-4.17 513.15-5.15 514.38-7.23 515.6-9.3 515.6-12.5L515.6-12.5Q515.6-15.75 514.4-17.8 513.2-19.85 511.27-20.83 509.35-21.8 507.15-21.8L507.15-21.8Q504.95-21.8 503.05-20.83 501.15-19.85 499.97-17.78 498.8-15.7 498.8-12.5L498.8-12.5Q498.8-9.25 499.95-7.2 501.1-5.15 502.97-4.17 504.85-3.2 507.05-3.2ZM529.15-5.05L529.15-5.05 529.55-5.1 529.55 10 525.8 10 525.8-25 529.25-25 529.5-20.35Q530.65-22.45 532.9-23.9 535.15-25.35 538.55-25.35L538.55-25.35Q541.8-25.35 544.4-23.78 547-22.2 548.5-19.33 550-16.45 550-12.5L550-12.5Q550-8.6 548.57-5.73 547.15-2.85 544.57-1.25 542 0.35 538.55 0.35L538.55 0.35Q534.95 0.35 532.6-1.2 530.25-2.75 529.15-5.05ZM545.95-12.5L545.95-12.5Q545.95-16.8 543.72-19.33 541.5-21.85 537.75-21.85L537.75-21.85Q535.4-21.85 533.52-20.75 531.65-19.65 530.6-17.55 529.55-15.45 529.55-12.5L529.55-12.5Q529.55-9.6 530.6-7.5 531.65-5.4 533.52-4.28 535.4-3.15 537.75-3.15L537.75-3.15Q541.5-3.15 543.72-5.68 545.95-8.2 545.95-12.5ZM559.44-5.05L559.44-5.05 559.84-5.1 559.84 10 556.09 10 556.09-25 559.54-25 559.79-20.35Q560.94-22.45 563.19-23.9 565.44-25.35 568.84-25.35L568.84-25.35Q572.09-25.35 574.69-23.78 577.29-22.2 578.79-19.33 580.29-16.45 580.29-12.5L580.29-12.5Q580.29-8.6 578.87-5.73 577.44-2.85 574.87-1.25 572.29 0.35 568.84 0.35L568.84 0.35Q565.24 0.35 562.89-1.2 560.54-2.75 559.44-5.05ZM576.24-12.5L576.24-12.5Q576.24-16.8 574.02-19.33 571.79-21.85 568.04-21.85L568.04-21.85Q565.69-21.85 563.82-20.75 561.94-19.65 560.89-17.55 559.84-15.45 559.84-12.5L559.84-12.5Q559.84-9.6 560.89-7.5 561.94-5.4 563.82-4.28 565.69-3.15 568.04-3.15L568.04-3.15Q571.79-3.15 574.02-5.68 576.24-8.2 576.24-12.5ZM587.14 0L587.14-25 590.84-25 590.84 0 587.14 0ZM589.04-30L589.04-30Q587.89-30 587.14-30.75 586.39-31.5 586.39-32.6L586.39-32.6Q586.39-33.75 587.14-34.5 587.89-35.25 589.04-35.25L589.04-35.25Q590.09-35.25 590.87-34.5 591.64-33.75 591.64-32.6L591.64-32.6Q591.64-31.5 590.87-30.75 590.09-30 589.04-30ZM599.29 0L599.29-25 602.74-25 602.94-21.45Q604.14-23.3 606.09-24.33 608.04-25.35 610.64-25.35L610.64-25.35Q613.49-25.35 615.64-24.13 617.79-22.9 618.99-20.48 620.19-18.05 620.19-14.4L620.19-14.4 620.19 0 616.44 0 616.44-13.95Q616.44-17.85 614.76-19.88 613.09-21.9 609.94-21.9L609.94-21.9Q606.69-21.9 604.86-19.75 603.04-17.6 603.04-13.4L603.04-13.4 603.04 0 599.29 0ZM646.39-20.35L646.64-25 650.09-25 650.09-4.6Q650.09 0 648.04 3.28 645.99 6.55 642.09 8.28 638.19 10 632.59 10L632.59 10 631.99 6.55Q639.04 6.45 642.69 3.63 646.34 0.8 646.34-4.6L646.34-4.6 646.34-5.15 646.74-5.05Q645.59-2.85 643.29-1.28 640.99 0.3 637.34 0.35L637.34 0.35Q633.89 0.35 631.31-1.23 628.74-2.8 627.31-5.7 625.89-8.6 625.89-12.5L625.89-12.5Q625.89-16.4 627.31-19.28 628.74-22.15 631.31-23.75 633.89-25.35 637.34-25.35L637.34-25.35Q639.59-25.35 641.34-24.68 643.09-24 644.34-22.88 645.59-21.75 646.39-20.35L646.39-20.35ZM629.94-12.5L629.94-12.5Q629.94-8.2 632.16-5.68 634.39-3.15 638.19-3.15L638.19-3.15Q640.49-3.15 642.34-4.25 644.19-5.35 645.26-7.45 646.34-9.55 646.34-12.5L646.34-12.5Q646.34-15.45 645.26-17.53 644.19-19.6 642.34-20.73 640.49-21.85 638.19-21.85L638.19-21.85Q634.44-21.85 632.19-19.3 629.94-16.75 629.94-12.5Z" opacity="1" transform="matrix(1,0,0,1,0,0)" fill="black" class="slogan-text-1" id="SvgjsPath9238"></path></svg></g></svg></g></svg></g></svg></g></svg></g><defs><mask></mask></defs></svg><rect width="395.52" height="133.95084573439794" fill="black" stroke="none" visibility="hidden"></rect></g></mask><linearGradient x1="0.054" x2="0.941" y1="0.5" y2="0.5" id="ed1c8265-0371-4860-9033-1a30be41342d"><stop stop-color="#9c7945" offset="0"></stop><stop stop-color="#faf3aa" offset="0.498"></stop><stop stop-color="#9c7945" offset="1"></stop></linearGradient><rect width="395.52" height="133.95084573439794" fill="url(#ed1c8265-0371-4860-9033-1a30be41342d)" mask="url(#e2238aeb-8685-452b-b435-de9f05f5929d)" data-fill-palette-color="primary"></rect><mask id="07280c87-f380-4f0d-bd06-f5e988cd67ca"><g id="SvgjsG9253"><svg viewBox="0 0 395.52 133.95084573439794" height="133.95084573439794" width="395.52"><g><svg viewBox="0 0 397.4975999999999 134.6205999630699" height="133.95084573439794" width="395.52"><g><svg viewBox="0 0 397.4975999999999 134.6205999630699" height="134.6205999630699" width="397.4975999999999"><g id="SvgjsG9252"><svg viewBox="0 0 397.4975999999999 134.6205999630699" height="134.6205999630699" width="397.4975999999999" id="SvgjsSvg9251"><g></g><g transform="matrix(1,0,0,1,0.9887999999999693,0)"><svg viewBox="0 0 395.52 81.7898970427163" height="81.7898970427163" width="395.52"><g transform="matrix(1,0,0,1,0,0)"><svg width="395.52" viewBox="1.05 -37.5 228.23 47.199999999999996" height="81.7898970427163" data-palette-color="url(#ed1c8265-0371-4860-9033-1a30be41342d)"></svg></g></svg></g><g transform="matrix(1,0,0,1,0,106.54356292603289)"><svg viewBox="0 0 395.52 28.077037037037037" height="28.077037037037037" width="395.52"><g transform="matrix(1,0,0,1,0,0)"><svg width="395.52" viewBox="2.15 -36 647.94 46" height="28.077037037037037" data-palette-color="url(#494e4d9b-218e-49f9-a06a-be4b97f8c72c)"><path d="M35.15-25.8L31.65-24.5Q29.75-28.25 26.6-30.03 23.45-31.8 19.6-31.8L19.6-31.8Q15.8-31.8 12.75-30.05 9.7-28.3 7.95-25.1 6.2-21.9 6.2-17.5L6.2-17.5Q6.2-13.15 7.95-9.95 9.7-6.75 12.75-5 15.8-3.25 19.6-3.25L19.6-3.25Q22.45-3.25 24.9-4.23 27.35-5.2 29.15-7.03 30.95-8.85 31.9-11.4L31.9-11.4 31.9-15.45 19.9-15.45 19.9-18.7 35.95-18.7 35.95-11.2Q34.8-7.85 32.45-5.25 30.1-2.65 26.8-1.15 23.5 0.35 19.6 0.35L19.6 0.35Q15.9 0.35 12.73-0.95 9.55-2.25 7.18-4.63 4.8-7 3.48-10.28 2.15-13.55 2.15-17.5L2.15-17.5Q2.15-21.45 3.48-24.73 4.8-28 7.18-30.38 9.55-32.75 12.73-34.05 15.9-35.35 19.6-35.35L19.6-35.35Q23.05-35.35 26.08-34.23 29.1-33.1 31.45-30.98 33.8-28.85 35.15-25.8L35.15-25.8ZM61.45 0L58 0 57.7-4.5Q56.65-2.2 54.6-0.93 52.55 0.35 49.4 0.35L49.4 0.35Q46.7 0.35 44.8-0.5 42.9-1.35 41.87-2.93 40.85-4.5 40.85-6.65L40.85-6.65Q40.85-9.8 43.2-11.83 45.55-13.85 50-14.3L50-14.3 57.7-15.15 57.7-17.15Q57.7-19.25 56.15-20.53 54.6-21.8 51.95-21.8L51.95-21.8Q49.35-21.8 47.62-20.6 45.9-19.4 45.25-17.15L45.25-17.15 41.85-18.35Q42.85-21.65 45.52-23.5 48.2-25.35 52.05-25.35L52.05-25.35Q56.5-25.35 58.97-23.08 61.45-20.8 61.45-16.9L61.45-16.9 61.45 0ZM57.7-11.15L57.7-11.95 49.95-11.05Q47.45-10.75 46.15-9.68 44.85-8.6 44.85-6.85L44.85-6.85Q44.85-5.1 46.12-4.05 47.4-3 49.8-3L49.8-3Q52.55-3 54.3-4.1 56.05-5.2 56.87-7.08 57.7-8.95 57.7-11.15L57.7-11.15ZM66.6-25L70.35-25 70.35-32 74.1-32 74.1-25 80.75-25 80.75-21.5 74.1-21.5 74.1-8.05Q74.1-5.75 75.07-4.7 76.05-3.65 77.57-3.45 79.1-3.25 80.75-3.45L80.75-3.45 80.75-0.2Q78.8 0.25 76.92 0.05 75.05-0.15 73.57-1.07 72.1-2 71.22-3.7 70.35-5.4 70.35-8.05L70.35-8.05 70.35-21.5 66.6-21.5 66.6-25ZM96.84 0.35L96.84 0.35Q93.34 0.35 90.62-1.35 87.89-3.05 86.34-6 84.79-8.95 84.79-12.75L84.79-12.75Q84.79-16.4 86.34-19.25 87.89-22.1 90.59-23.73 93.29-25.35 96.74-25.35L96.74-25.35Q100.14-25.35 102.82-23.85 105.49-22.35 106.99-19.7 108.49-17.05 108.39-13.65L108.39-13.65Q108.39-13.1 108.34-12.5 108.29-11.9 108.24-11.2L108.24-11.2 88.89-11.2Q88.99-8.85 90.04-7.05 91.09-5.25 92.82-4.23 94.54-3.2 96.74-3.2L96.74-3.2Q99.64-3.2 101.67-4.3 103.69-5.4 104.59-7.45L104.59-7.45 107.84-6.15Q106.34-3 103.49-1.33 100.64 0.35 96.84 0.35ZM88.94-14.45L104.29-14.45Q104.34-16.6 103.37-18.25 102.39-19.9 100.64-20.85 98.89-21.8 96.59-21.8L96.59-21.8Q94.59-21.8 92.94-20.85 91.29-19.9 90.22-18.23 89.14-16.55 88.94-14.45L88.94-14.45ZM129.09-19.4L122.74 0 119.34 0 111.49-25 115.29-25 121.04-4.65 127.49-25 130.89-25 137.24-4.7 142.94-25 146.64-25 138.84 0 135.39 0 129.09-19.4ZM170.34 0L166.89 0 166.59-4.5Q165.54-2.2 163.49-0.93 161.44 0.35 158.29 0.35L158.29 0.35Q155.59 0.35 153.69-0.5 151.79-1.35 150.76-2.93 149.74-4.5 149.74-6.65L149.74-6.65Q149.74-9.8 152.09-11.83 154.44-13.85 158.89-14.3L158.89-14.3 166.59-15.15 166.59-17.15Q166.59-19.25 165.04-20.53 163.49-21.8 160.84-21.8L160.84-21.8Q158.24-21.8 156.51-20.6 154.79-19.4 154.14-17.15L154.14-17.15 150.74-18.35Q151.74-21.65 154.41-23.5 157.09-25.35 160.94-25.35L160.94-25.35Q165.39-25.35 167.86-23.08 170.34-20.8 170.34-16.9L170.34-16.9 170.34 0ZM166.59-11.15L166.59-11.95 158.84-11.05Q156.34-10.75 155.04-9.68 153.74-8.6 153.74-6.85L153.74-6.85Q153.74-5.1 155.01-4.05 156.29-3 158.69-3L158.69-3Q161.44-3 163.19-4.1 164.94-5.2 165.76-7.08 166.59-8.95 166.59-11.15L166.59-11.15ZM186.24-4.8L193.99-25 197.89-25 183.59 10 179.99 10 184.24-0.35 174.14-25 178.24-25 186.24-4.8ZM214.53-25L218.28-25 218.28-32 222.03-32 222.03-25 228.68-25 228.68-21.5 222.03-21.5 222.03-8.05Q222.03-5.75 223.01-4.7 223.98-3.65 225.51-3.45 227.03-3.25 228.68-3.45L228.68-3.45 228.68-0.2Q226.73 0.25 224.86 0.05 222.98-0.15 221.51-1.07 220.03-2 219.16-3.7 218.28-5.4 218.28-8.05L218.28-8.05 218.28-21.5 214.53-21.5 214.53-25ZM245.08 0.35L245.08 0.35Q241.53 0.35 238.73-1.2 235.93-2.75 234.33-5.63 232.73-8.5 232.73-12.45L232.73-12.45Q232.73-16.45 234.35-19.35 235.98-22.25 238.8-23.8 241.63-25.35 245.18-25.35L245.18-25.35Q248.73-25.35 251.55-23.8 254.38-22.25 256-19.38 257.63-16.5 257.63-12.55L257.63-12.55Q257.63-8.55 255.98-5.65 254.33-2.75 251.48-1.2 248.63 0.35 245.08 0.35ZM245.03-3.2L245.03-3.2Q247.23-3.2 249.18-4.17 251.13-5.15 252.35-7.23 253.58-9.3 253.58-12.5L253.58-12.5Q253.58-15.75 252.38-17.8 251.18-19.85 249.25-20.83 247.33-21.8 245.13-21.8L245.13-21.8Q242.93-21.8 241.03-20.83 239.13-19.85 237.95-17.78 236.78-15.7 236.78-12.5L236.78-12.5Q236.78-9.25 237.93-7.2 239.08-5.15 240.95-4.17 242.83-3.2 245.03-3.2ZM309.07-25.8L305.57-24.5Q303.67-28.25 300.52-30.03 297.37-31.8 293.52-31.8L293.52-31.8Q289.72-31.8 286.67-30.05 283.62-28.3 281.87-25.1 280.12-21.9 280.12-17.5L280.12-17.5Q280.12-13.15 281.87-9.95 283.62-6.75 286.67-5 289.72-3.25 293.52-3.25L293.52-3.25Q296.37-3.25 298.82-4.23 301.27-5.2 303.07-7.03 304.87-8.85 305.82-11.4L305.82-11.4 305.82-15.45 293.82-15.45 293.82-18.7 309.87-18.7 309.87-11.2Q308.72-7.85 306.37-5.25 304.02-2.65 300.72-1.15 297.42 0.35 293.52 0.35L293.52 0.35Q289.82 0.35 286.65-0.95 283.47-2.25 281.1-4.63 278.72-7 277.4-10.28 276.07-13.55 276.07-17.5L276.07-17.5Q276.07-21.45 277.4-24.73 278.72-28 281.1-30.38 283.47-32.75 286.65-34.05 289.82-35.35 293.52-35.35L293.52-35.35Q296.97-35.35 300-34.23 303.02-33.1 305.37-30.98 307.72-28.85 309.07-25.8L309.07-25.8ZM316.27 0L316.27-36 320.02-36 320.02 0 316.27 0ZM338.47 0.35L338.47 0.35Q334.92 0.35 332.12-1.2 329.32-2.75 327.72-5.63 326.12-8.5 326.12-12.45L326.12-12.45Q326.12-16.45 327.74-19.35 329.37-22.25 332.19-23.8 335.02-25.35 338.57-25.35L338.57-25.35Q342.12-25.35 344.94-23.8 347.77-22.25 349.39-19.38 351.02-16.5 351.02-12.55L351.02-12.55Q351.02-8.55 349.37-5.65 347.72-2.75 344.87-1.2 342.02 0.35 338.47 0.35ZM338.42-3.2L338.42-3.2Q340.62-3.2 342.57-4.17 344.52-5.15 345.74-7.23 346.97-9.3 346.97-12.5L346.97-12.5Q346.97-15.75 345.77-17.8 344.57-19.85 342.64-20.83 340.72-21.8 338.52-21.8L338.52-21.8Q336.32-21.8 334.42-20.83 332.52-19.85 331.34-17.78 330.17-15.7 330.17-12.5L330.17-12.5Q330.17-9.25 331.32-7.2 332.47-5.15 334.34-4.17 336.22-3.2 338.42-3.2ZM360.92-19.9L360.51-19.95Q361.62-22.25 363.96-23.8 366.31-25.35 369.92-25.35L369.92-25.35Q373.37-25.35 375.94-23.75 378.51-22.15 379.94-19.28 381.37-16.4 381.37-12.5L381.37-12.5Q381.37-8.6 379.92-5.7 378.46-2.8 375.89-1.23 373.31 0.35 369.92 0.35L369.92 0.35Q366.51 0.35 364.26-1.1 362.01-2.55 360.87-4.65L360.87-4.65 360.62 0 357.17 0 357.17-36 360.92-36 360.92-19.9ZM377.31-12.5L377.31-12.5Q377.31-16.8 375.09-19.33 372.87-21.85 369.12-21.85L369.12-21.85Q366.76-21.85 364.89-20.73 363.01-19.6 361.96-17.53 360.92-15.45 360.92-12.5L360.92-12.5Q360.92-9.55 361.96-7.45 363.01-5.35 364.89-4.25 366.76-3.15 369.12-3.15L369.12-3.15Q372.87-3.15 375.09-5.68 377.31-8.2 377.31-12.5ZM406.56 0L403.11 0 402.81-4.5Q401.76-2.2 399.71-0.93 397.66 0.35 394.51 0.35L394.51 0.35Q391.81 0.35 389.91-0.5 388.01-1.35 386.99-2.93 385.96-4.5 385.96-6.65L385.96-6.65Q385.96-9.8 388.31-11.83 390.66-13.85 395.11-14.3L395.11-14.3 402.81-15.15 402.81-17.15Q402.81-19.25 401.26-20.53 399.71-21.8 397.06-21.8L397.06-21.8Q394.46-21.8 392.74-20.6 391.01-19.4 390.36-17.15L390.36-17.15 386.96-18.35Q387.96-21.65 390.64-23.5 393.31-25.35 397.16-25.35L397.16-25.35Q401.61-25.35 404.09-23.08 406.56-20.8 406.56-16.9L406.56-16.9 406.56 0ZM402.81-11.15L402.81-11.95 395.06-11.05Q392.56-10.75 391.26-9.68 389.96-8.6 389.96-6.85L389.96-6.85Q389.96-5.1 391.24-4.05 392.51-3 394.91-3L394.91-3Q397.66-3 399.41-4.1 401.16-5.2 401.99-7.08 402.81-8.95 402.81-11.15L402.81-11.15ZM413.86 0L413.86-36 417.61-36 417.61 0 413.86 0ZM437.95-7.45L441.6-8.9Q441.9-7.55 442.88-6.23 443.85-4.9 445.58-4.03 447.3-3.15 450-3.15L450-3.15Q453.85-3.15 455.7-4.95 457.55-6.75 457.55-9.2L457.55-9.2Q457.55-11.15 456.5-12.4 455.45-13.65 453.65-14.48 451.85-15.3 449.6-15.95L449.6-15.95Q447.6-16.5 445.63-17.18 443.65-17.85 442.05-18.88 440.45-19.9 439.5-21.55 438.55-23.2 438.55-25.65L438.55-25.65Q438.55-28.6 439.95-30.78 441.35-32.95 443.9-34.15 446.45-35.35 449.85-35.35L449.85-35.35Q452.8-35.35 455-34.5 457.2-33.65 458.68-32.13 460.15-30.6 460.85-28.6L460.85-28.6 457.3-27.25Q456.95-28.4 455.95-29.48 454.95-30.55 453.35-31.25 451.75-31.95 449.7-31.95L449.7-31.95Q447.7-31.95 446.08-31.25 444.45-30.55 443.5-29.25 442.55-27.95 442.55-26.1L442.55-26.1Q442.55-24.1 443.68-22.93 444.8-21.75 446.68-21.03 448.55-20.3 450.8-19.65L450.8-19.65Q452.85-19 454.78-18.25 456.7-17.5 458.23-16.4 459.75-15.3 460.65-13.65 461.55-12 461.55-9.6L461.55-9.6Q461.55-6.95 460.3-4.67 459.05-2.4 456.53-1.03 454 0.35 450.05 0.35L450.05 0.35Q446.75 0.35 444.25-0.68 441.75-1.7 440.15-3.45 438.55-5.2 437.95-7.45L437.95-7.45ZM467.95 0L467.95-36 471.7-36 471.7-21.6Q472.9-23.4 474.95-24.38 477-25.35 479.55-25.35L479.55-25.35Q482.3-25.35 484.45-24.1 486.6-22.85 487.83-20.4 489.05-17.95 489.05-14.3L489.05-14.3 489.05 0 485.05 0 485.05-13.85Q485.05-17.75 483.4-19.83 481.75-21.9 478.6-21.9L478.6-21.9Q475.35-21.9 473.53-19.7 471.7-17.5 471.7-13.3L471.7-13.3 471.7 0 467.95 0ZM507.1 0.35L507.1 0.35Q503.55 0.35 500.75-1.2 497.95-2.75 496.35-5.63 494.75-8.5 494.75-12.45L494.75-12.45Q494.75-16.45 496.38-19.35 498-22.25 500.82-23.8 503.65-25.35 507.2-25.35L507.2-25.35Q510.75-25.35 513.58-23.8 516.4-22.25 518.02-19.38 519.65-16.5 519.65-12.55L519.65-12.55Q519.65-8.55 518-5.65 516.35-2.75 513.5-1.2 510.65 0.35 507.1 0.35ZM507.05-3.2L507.05-3.2Q509.25-3.2 511.2-4.17 513.15-5.15 514.38-7.23 515.6-9.3 515.6-12.5L515.6-12.5Q515.6-15.75 514.4-17.8 513.2-19.85 511.27-20.83 509.35-21.8 507.15-21.8L507.15-21.8Q504.95-21.8 503.05-20.83 501.15-19.85 499.97-17.78 498.8-15.7 498.8-12.5L498.8-12.5Q498.8-9.25 499.95-7.2 501.1-5.15 502.97-4.17 504.85-3.2 507.05-3.2ZM529.15-5.05L529.15-5.05 529.55-5.1 529.55 10 525.8 10 525.8-25 529.25-25 529.5-20.35Q530.65-22.45 532.9-23.9 535.15-25.35 538.55-25.35L538.55-25.35Q541.8-25.35 544.4-23.78 547-22.2 548.5-19.33 550-16.45 550-12.5L550-12.5Q550-8.6 548.57-5.73 547.15-2.85 544.57-1.25 542 0.35 538.55 0.35L538.55 0.35Q534.95 0.35 532.6-1.2 530.25-2.75 529.15-5.05ZM545.95-12.5L545.95-12.5Q545.95-16.8 543.72-19.33 541.5-21.85 537.75-21.85L537.75-21.85Q535.4-21.85 533.52-20.75 531.65-19.65 530.6-17.55 529.55-15.45 529.55-12.5L529.55-12.5Q529.55-9.6 530.6-7.5 531.65-5.4 533.52-4.28 535.4-3.15 537.75-3.15L537.75-3.15Q541.5-3.15 543.72-5.68 545.95-8.2 545.95-12.5ZM559.44-5.05L559.44-5.05 559.84-5.1 559.84 10 556.09 10 556.09-25 559.54-25 559.79-20.35Q560.94-22.45 563.19-23.9 565.44-25.35 568.84-25.35L568.84-25.35Q572.09-25.35 574.69-23.78 577.29-22.2 578.79-19.33 580.29-16.45 580.29-12.5L580.29-12.5Q580.29-8.6 578.87-5.73 577.44-2.85 574.87-1.25 572.29 0.35 568.84 0.35L568.84 0.35Q565.24 0.35 562.89-1.2 560.54-2.75 559.44-5.05ZM576.24-12.5L576.24-12.5Q576.24-16.8 574.02-19.33 571.79-21.85 568.04-21.85L568.04-21.85Q565.69-21.85 563.82-20.75 561.94-19.65 560.89-17.55 559.84-15.45 559.84-12.5L559.84-12.5Q559.84-9.6 560.89-7.5 561.94-5.4 563.82-4.28 565.69-3.15 568.04-3.15L568.04-3.15Q571.79-3.15 574.02-5.68 576.24-8.2 576.24-12.5ZM587.14 0L587.14-25 590.84-25 590.84 0 587.14 0ZM589.04-30L589.04-30Q587.89-30 587.14-30.75 586.39-31.5 586.39-32.6L586.39-32.6Q586.39-33.75 587.14-34.5 587.89-35.25 589.04-35.25L589.04-35.25Q590.09-35.25 590.87-34.5 591.64-33.75 591.64-32.6L591.64-32.6Q591.64-31.5 590.87-30.75 590.09-30 589.04-30ZM599.29 0L599.29-25 602.74-25 602.94-21.45Q604.14-23.3 606.09-24.33 608.04-25.35 610.64-25.35L610.64-25.35Q613.49-25.35 615.64-24.13 617.79-22.9 618.99-20.48 620.19-18.05 620.19-14.4L620.19-14.4 620.19 0 616.44 0 616.44-13.95Q616.44-17.85 614.76-19.88 613.09-21.9 609.94-21.9L609.94-21.9Q606.69-21.9 604.86-19.75 603.04-17.6 603.04-13.4L603.04-13.4 603.04 0 599.29 0ZM646.39-20.35L646.64-25 650.09-25 650.09-4.6Q650.09 0 648.04 3.28 645.99 6.55 642.09 8.28 638.19 10 632.59 10L632.59 10 631.99 6.55Q639.04 6.45 642.69 3.63 646.34 0.8 646.34-4.6L646.34-4.6 646.34-5.15 646.74-5.05Q645.59-2.85 643.29-1.28 640.99 0.3 637.34 0.35L637.34 0.35Q633.89 0.35 631.31-1.23 628.74-2.8 627.31-5.7 625.89-8.6 625.89-12.5L625.89-12.5Q625.89-16.4 627.31-19.28 628.74-22.15 631.31-23.75 633.89-25.35 637.34-25.35L637.34-25.35Q639.59-25.35 641.34-24.68 643.09-24 644.34-22.88 645.59-21.75 646.39-20.35L646.39-20.35ZM629.94-12.5L629.94-12.5Q629.94-8.2 632.16-5.68 634.39-3.15 638.19-3.15L638.19-3.15Q640.49-3.15 642.34-4.25 644.19-5.35 645.26-7.45 646.34-9.55 646.34-12.5L646.34-12.5Q646.34-15.45 645.26-17.53 644.19-19.6 642.34-20.73 640.49-21.85 638.19-21.85L638.19-21.85Q634.44-21.85 632.19-19.3 629.94-16.75 629.94-12.5Z" opacity="1" transform="matrix(1,0,0,1,0,0)" fill="white" class="slogan-text-1" id="SvgjsPath9250"></path></svg></g></svg></g></svg></g></svg></g></svg></g><defs><mask></mask></defs><mask><g id="SvgjsG9249"><svg viewBox="0 0 395.52 133.95084573439794" height="133.95084573439794" width="395.52"><g><svg viewBox="0 0 397.4975999999999 134.6205999630699" height="133.95084573439794" width="395.52"><g><svg viewBox="0 0 397.4975999999999 134.6205999630699" height="134.6205999630699" width="397.4975999999999"><g id="SvgjsG9248"><svg viewBox="0 0 397.4975999999999 134.6205999630699" height="134.6205999630699" width="397.4975999999999" id="SvgjsSvg9247"><g><rect width="397.4975999999999" height="7.375897322485905" x="0" y="90.47878132313164" fill="black" opacity="1" stroke-width="0" stroke="transparent" fill-opacity="1" class="rect-yte-0" rx="1%" id="SvgjsRect9246" data-palette-color="url(#ed1c8265-0371-4860-9033-1a30be41342d)"></rect></g><g transform="matrix(1,0,0,1,0.9887999999999693,0)"><svg viewBox="0 0 395.52 81.7898970427163" height="81.7898970427163" width="395.52"><g transform="matrix(1,0,0,1,0,0)"><svg width="395.52" viewBox="1.05 -37.5 228.23 47.199999999999996" height="81.7898970427163" data-palette-color="url(#ed1c8265-0371-4860-9033-1a30be41342d)"><path d="M21.5-24.15L19.4-20.1Q17.65-21.15 15.58-21.78 13.5-22.4 11.75-22.4L11.75-22.4Q10.05-22.4 8.95-21.75 7.85-21.1 7.85-19.6L7.85-19.6Q7.85-18.35 8.88-17.63 9.9-16.9 11.5-16.4 13.1-15.9 14.9-15.35 16.7-14.8 18.32-13.93 19.95-13.05 20.95-11.55 21.95-10.05 21.95-7.6L21.95-7.6Q21.95-4.9 20.53-3.18 19.1-1.45 16.78-0.63 14.45 0.2 11.75 0.2L11.75 0.2Q8.85 0.2 5.95-0.75 3.05-1.7 1.05-3.5L1.05-3.5 3.1-7.4Q4.85-5.85 7.35-4.98 9.85-4.1 12-4.1L12-4.1Q13.25-4.1 14.23-4.42 15.2-4.75 15.78-5.4 16.35-6.05 16.35-7.1L16.35-7.1Q16.35-8.5 15.35-9.3 14.35-10.1 12.75-10.63 11.15-11.15 9.35-11.68 7.55-12.2 5.98-13.05 4.4-13.9 3.4-15.35 2.4-16.8 2.4-19.2L2.4-19.2Q2.4-21.9 3.8-23.58 5.2-25.25 7.43-26.03 9.65-26.8 12.2-26.8L12.2-26.8Q14.7-26.8 17.2-26.1 19.7-25.4 21.5-24.15L21.5-24.15ZM47.75 0L47.75-15Q47.75-18.1 46.05-19.88 44.35-21.65 41.35-21.65L41.35-21.65Q37.8-21.6 35.77-19.15 33.75-16.7 33.75-13.05L33.75-13.05 32.15-13.05Q32.15-18 33.55-21 34.95-24 37.52-25.38 40.1-26.75 43.6-26.75L43.6-26.75Q46.7-26.75 48.92-25.5 51.15-24.25 52.32-21.98 53.5-19.7 53.5-16.5L53.5-16.5 53.5 0 47.75 0ZM28 0L28-37.1 33.75-37.1 33.75 0 28 0ZM72.6-26.75L72.6-26.75Q76.7-26.75 79.82-25.05 82.95-23.35 84.7-20.33 86.45-17.3 86.45-13.3L86.45-13.3Q86.45-9.3 84.7-6.25 82.95-3.2 79.82-1.5 76.7 0.2 72.6 0.2L72.6 0.2Q68.5 0.2 65.35-1.5 62.2-3.2 60.45-6.25 58.7-9.3 58.7-13.3L58.7-13.3Q58.7-17.3 60.45-20.33 62.2-23.35 65.35-25.05 68.5-26.75 72.6-26.75ZM72.6-22.1L72.6-22.1Q70.2-22.1 68.35-20.98 66.5-19.85 65.47-17.85 64.45-15.85 64.45-13.25L64.45-13.25Q64.45-10.6 65.47-8.6 66.5-6.6 68.35-5.48 70.2-4.35 72.6-4.35L72.6-4.35Q75-4.35 76.82-5.48 78.65-6.6 79.67-8.6 80.7-10.6 80.7-13.25L80.7-13.25Q80.7-15.85 79.67-17.85 78.65-19.85 76.82-20.98 75-22.1 72.6-22.1ZM107.74-26.75L107.74-26.75Q111.54-26.75 114.39-25.05 117.24-23.35 118.84-20.3 120.44-17.25 120.44-13.2L120.44-13.2Q120.44-9.25 118.87-6.23 117.29-3.2 114.47-1.5 111.64 0.2 107.84 0.2L107.84 0.2Q104.19 0.2 101.62-1.4 99.04-3 97.69-6.03 96.34-9.05 96.34-13.2L96.34-13.2Q96.34-17.5 97.69-20.53 99.04-23.55 101.62-25.15 104.19-26.75 107.74-26.75ZM106.54-22.2L106.54-22.2Q104.19-22.2 102.34-21.05 100.49-19.9 99.47-17.93 98.44-15.95 98.44-13.35L98.44-13.35Q98.44-10.75 99.47-8.72 100.49-6.7 102.34-5.58 104.19-4.45 106.54-4.45L106.54-4.45Q108.94-4.45 110.77-5.6 112.59-6.75 113.62-8.75 114.64-10.75 114.64-13.35L114.64-13.35Q114.64-15.9 113.62-17.9 112.59-19.9 110.77-21.05 108.94-22.2 106.54-22.2ZM92.69 9.7L92.69-26.55 98.44-26.55 98.44 9.7 92.69 9.7ZM126.69 0L126.69-37.1 132.44-37.1 132.44 0 126.69 0ZM141.19 0L141.19-26.55 146.89-26.55 146.89 0 141.19 0ZM144.04-37.5L144.04-37.5Q145.49-37.5 146.44-36.55 147.39-35.6 147.39-34.15L147.39-34.15Q147.39-32.75 146.44-31.78 145.49-30.8 144.04-30.8L144.04-30.8Q142.64-30.8 141.66-31.78 140.69-32.75 140.69-34.15L140.69-34.15Q140.69-35.6 141.66-36.55 142.64-37.5 144.04-37.5ZM161.23-13.6L152.48-26.55 159.08-26.55 165.03-17.25 171.08-26.55 177.38-26.55 168.83-13.6 177.98 0 171.38 0 165.03-9.95 158.23 0 151.83 0 161.23-13.6ZM194.48-26.75L194.48-26.75Q198.58-26.75 201.71-25.05 204.83-23.35 206.58-20.33 208.33-17.3 208.33-13.3L208.33-13.3Q208.33-9.3 206.58-6.25 204.83-3.2 201.71-1.5 198.58 0.2 194.48 0.2L194.48 0.2Q190.38 0.2 187.23-1.5 184.08-3.2 182.33-6.25 180.58-9.3 180.58-13.3L180.58-13.3Q180.58-17.3 182.33-20.33 184.08-23.35 187.23-25.05 190.38-26.75 194.48-26.75ZM194.48-22.1L194.48-22.1Q192.08-22.1 190.23-20.98 188.38-19.85 187.36-17.85 186.33-15.85 186.33-13.25L186.33-13.25Q186.33-10.6 187.36-8.6 188.38-6.6 190.23-5.48 192.08-4.35 194.48-4.35L194.48-4.35Q196.88-4.35 198.71-5.48 200.53-6.6 201.56-8.6 202.58-10.6 202.58-13.25L202.58-13.25Q202.58-15.85 201.56-17.85 200.53-19.85 198.71-20.98 196.88-22.1 194.48-22.1ZM229.28-26.75L229.28-21.55Q226.43-21.7 224.35-20.58 222.28-19.45 221.15-17.45 220.03-15.45 220.03-12.85L220.03-12.85 218.43-13.05Q218.43-17.5 219.73-20.55 221.03-23.6 223.48-25.18 225.93-26.75 229.28-26.75L229.28-26.75ZM214.33 0L214.33-26.55 220.08-26.55 220.08 0 214.33 0Z" opacity="1" transform="matrix(1,0,0,1,0,0)" fill="black" class="wordmark-text-0" id="SvgjsPath9245"></path></svg></g></svg></g><g transform="matrix(1,0,0,1,0,106.54356292603289)"><svg viewBox="0 0 395.52 28.077037037037037" height="28.077037037037037" width="395.52"><g transform="matrix(1,0,0,1,0,0)"><svg width="395.52" viewBox="2.15 -36 647.94 46" height="28.077037037037037" data-palette-color="url(#494e4d9b-218e-49f9-a06a-be4b97f8c72c)"><path d="M35.15-25.8L31.65-24.5Q29.75-28.25 26.6-30.03 23.45-31.8 19.6-31.8L19.6-31.8Q15.8-31.8 12.75-30.05 9.7-28.3 7.95-25.1 6.2-21.9 6.2-17.5L6.2-17.5Q6.2-13.15 7.95-9.95 9.7-6.75 12.75-5 15.8-3.25 19.6-3.25L19.6-3.25Q22.45-3.25 24.9-4.23 27.35-5.2 29.15-7.03 30.95-8.85 31.9-11.4L31.9-11.4 31.9-15.45 19.9-15.45 19.9-18.7 35.95-18.7 35.95-11.2Q34.8-7.85 32.45-5.25 30.1-2.65 26.8-1.15 23.5 0.35 19.6 0.35L19.6 0.35Q15.9 0.35 12.73-0.95 9.55-2.25 7.18-4.63 4.8-7 3.48-10.28 2.15-13.55 2.15-17.5L2.15-17.5Q2.15-21.45 3.48-24.73 4.8-28 7.18-30.38 9.55-32.75 12.73-34.05 15.9-35.35 19.6-35.35L19.6-35.35Q23.05-35.35 26.08-34.23 29.1-33.1 31.45-30.98 33.8-28.85 35.15-25.8L35.15-25.8ZM61.45 0L58 0 57.7-4.5Q56.65-2.2 54.6-0.93 52.55 0.35 49.4 0.35L49.4 0.35Q46.7 0.35 44.8-0.5 42.9-1.35 41.87-2.93 40.85-4.5 40.85-6.65L40.85-6.65Q40.85-9.8 43.2-11.83 45.55-13.85 50-14.3L50-14.3 57.7-15.15 57.7-17.15Q57.7-19.25 56.15-20.53 54.6-21.8 51.95-21.8L51.95-21.8Q49.35-21.8 47.62-20.6 45.9-19.4 45.25-17.15L45.25-17.15 41.85-18.35Q42.85-21.65 45.52-23.5 48.2-25.35 52.05-25.35L52.05-25.35Q56.5-25.35 58.97-23.08 61.45-20.8 61.45-16.9L61.45-16.9 61.45 0ZM57.7-11.15L57.7-11.95 49.95-11.05Q47.45-10.75 46.15-9.68 44.85-8.6 44.85-6.85L44.85-6.85Q44.85-5.1 46.12-4.05 47.4-3 49.8-3L49.8-3Q52.55-3 54.3-4.1 56.05-5.2 56.87-7.08 57.7-8.95 57.7-11.15L57.7-11.15ZM66.6-25L70.35-25 70.35-32 74.1-32 74.1-25 80.75-25 80.75-21.5 74.1-21.5 74.1-8.05Q74.1-5.75 75.07-4.7 76.05-3.65 77.57-3.45 79.1-3.25 80.75-3.45L80.75-3.45 80.75-0.2Q78.8 0.25 76.92 0.05 75.05-0.15 73.57-1.07 72.1-2 71.22-3.7 70.35-5.4 70.35-8.05L70.35-8.05 70.35-21.5 66.6-21.5 66.6-25ZM96.84 0.35L96.84 0.35Q93.34 0.35 90.62-1.35 87.89-3.05 86.34-6 84.79-8.95 84.79-12.75L84.79-12.75Q84.79-16.4 86.34-19.25 87.89-22.1 90.59-23.73 93.29-25.35 96.74-25.35L96.74-25.35Q100.14-25.35 102.82-23.85 105.49-22.35 106.99-19.7 108.49-17.05 108.39-13.65L108.39-13.65Q108.39-13.1 108.34-12.5 108.29-11.9 108.24-11.2L108.24-11.2 88.89-11.2Q88.99-8.85 90.04-7.05 91.09-5.25 92.82-4.23 94.54-3.2 96.74-3.2L96.74-3.2Q99.64-3.2 101.67-4.3 103.69-5.4 104.59-7.45L104.59-7.45 107.84-6.15Q106.34-3 103.49-1.33 100.64 0.35 96.84 0.35ZM88.94-14.45L104.29-14.45Q104.34-16.6 103.37-18.25 102.39-19.9 100.64-20.85 98.89-21.8 96.59-21.8L96.59-21.8Q94.59-21.8 92.94-20.85 91.29-19.9 90.22-18.23 89.14-16.55 88.94-14.45L88.94-14.45ZM129.09-19.4L122.74 0 119.34 0 111.49-25 115.29-25 121.04-4.65 127.49-25 130.89-25 137.24-4.7 142.94-25 146.64-25 138.84 0 135.39 0 129.09-19.4ZM170.34 0L166.89 0 166.59-4.5Q165.54-2.2 163.49-0.93 161.44 0.35 158.29 0.35L158.29 0.35Q155.59 0.35 153.69-0.5 151.79-1.35 150.76-2.93 149.74-4.5 149.74-6.65L149.74-6.65Q149.74-9.8 152.09-11.83 154.44-13.85 158.89-14.3L158.89-14.3 166.59-15.15 166.59-17.15Q166.59-19.25 165.04-20.53 163.49-21.8 160.84-21.8L160.84-21.8Q158.24-21.8 156.51-20.6 154.79-19.4 154.14-17.15L154.14-17.15 150.74-18.35Q151.74-21.65 154.41-23.5 157.09-25.35 160.94-25.35L160.94-25.35Q165.39-25.35 167.86-23.08 170.34-20.8 170.34-16.9L170.34-16.9 170.34 0ZM166.59-11.15L166.59-11.95 158.84-11.05Q156.34-10.75 155.04-9.68 153.74-8.6 153.74-6.85L153.74-6.85Q153.74-5.1 155.01-4.05 156.29-3 158.69-3L158.69-3Q161.44-3 163.19-4.1 164.94-5.2 165.76-7.08 166.59-8.95 166.59-11.15L166.59-11.15ZM186.24-4.8L193.99-25 197.89-25 183.59 10 179.99 10 184.24-0.35 174.14-25 178.24-25 186.24-4.8ZM214.53-25L218.28-25 218.28-32 222.03-32 222.03-25 228.68-25 228.68-21.5 222.03-21.5 222.03-8.05Q222.03-5.75 223.01-4.7 223.98-3.65 225.51-3.45 227.03-3.25 228.68-3.45L228.68-3.45 228.68-0.2Q226.73 0.25 224.86 0.05 222.98-0.15 221.51-1.07 220.03-2 219.16-3.7 218.28-5.4 218.28-8.05L218.28-8.05 218.28-21.5 214.53-21.5 214.53-25ZM245.08 0.35L245.08 0.35Q241.53 0.35 238.73-1.2 235.93-2.75 234.33-5.63 232.73-8.5 232.73-12.45L232.73-12.45Q232.73-16.45 234.35-19.35 235.98-22.25 238.8-23.8 241.63-25.35 245.18-25.35L245.18-25.35Q248.73-25.35 251.55-23.8 254.38-22.25 256-19.38 257.63-16.5 257.63-12.55L257.63-12.55Q257.63-8.55 255.98-5.65 254.33-2.75 251.48-1.2 248.63 0.35 245.08 0.35ZM245.03-3.2L245.03-3.2Q247.23-3.2 249.18-4.17 251.13-5.15 252.35-7.23 253.58-9.3 253.58-12.5L253.58-12.5Q253.58-15.75 252.38-17.8 251.18-19.85 249.25-20.83 247.33-21.8 245.13-21.8L245.13-21.8Q242.93-21.8 241.03-20.83 239.13-19.85 237.95-17.78 236.78-15.7 236.78-12.5L236.78-12.5Q236.78-9.25 237.93-7.2 239.08-5.15 240.95-4.17 242.83-3.2 245.03-3.2ZM309.07-25.8L305.57-24.5Q303.67-28.25 300.52-30.03 297.37-31.8 293.52-31.8L293.52-31.8Q289.72-31.8 286.67-30.05 283.62-28.3 281.87-25.1 280.12-21.9 280.12-17.5L280.12-17.5Q280.12-13.15 281.87-9.95 283.62-6.75 286.67-5 289.72-3.25 293.52-3.25L293.52-3.25Q296.37-3.25 298.82-4.23 301.27-5.2 303.07-7.03 304.87-8.85 305.82-11.4L305.82-11.4 305.82-15.45 293.82-15.45 293.82-18.7 309.87-18.7 309.87-11.2Q308.72-7.85 306.37-5.25 304.02-2.65 300.72-1.15 297.42 0.35 293.52 0.35L293.52 0.35Q289.82 0.35 286.65-0.95 283.47-2.25 281.1-4.63 278.72-7 277.4-10.28 276.07-13.55 276.07-17.5L276.07-17.5Q276.07-21.45 277.4-24.73 278.72-28 281.1-30.38 283.47-32.75 286.65-34.05 289.82-35.35 293.52-35.35L293.52-35.35Q296.97-35.35 300-34.23 303.02-33.1 305.37-30.98 307.72-28.85 309.07-25.8L309.07-25.8ZM316.27 0L316.27-36 320.02-36 320.02 0 316.27 0ZM338.47 0.35L338.47 0.35Q334.92 0.35 332.12-1.2 329.32-2.75 327.72-5.63 326.12-8.5 326.12-12.45L326.12-12.45Q326.12-16.45 327.74-19.35 329.37-22.25 332.19-23.8 335.02-25.35 338.57-25.35L338.57-25.35Q342.12-25.35 344.94-23.8 347.77-22.25 349.39-19.38 351.02-16.5 351.02-12.55L351.02-12.55Q351.02-8.55 349.37-5.65 347.72-2.75 344.87-1.2 342.02 0.35 338.47 0.35ZM338.42-3.2L338.42-3.2Q340.62-3.2 342.57-4.17 344.52-5.15 345.74-7.23 346.97-9.3 346.97-12.5L346.97-12.5Q346.97-15.75 345.77-17.8 344.57-19.85 342.64-20.83 340.72-21.8 338.52-21.8L338.52-21.8Q336.32-21.8 334.42-20.83 332.52-19.85 331.34-17.78 330.17-15.7 330.17-12.5L330.17-12.5Q330.17-9.25 331.32-7.2 332.47-5.15 334.34-4.17 336.22-3.2 338.42-3.2ZM360.92-19.9L360.51-19.95Q361.62-22.25 363.96-23.8 366.31-25.35 369.92-25.35L369.92-25.35Q373.37-25.35 375.94-23.75 378.51-22.15 379.94-19.28 381.37-16.4 381.37-12.5L381.37-12.5Q381.37-8.6 379.92-5.7 378.46-2.8 375.89-1.23 373.31 0.35 369.92 0.35L369.92 0.35Q366.51 0.35 364.26-1.1 362.01-2.55 360.87-4.65L360.87-4.65 360.62 0 357.17 0 357.17-36 360.92-36 360.92-19.9ZM377.31-12.5L377.31-12.5Q377.31-16.8 375.09-19.33 372.87-21.85 369.12-21.85L369.12-21.85Q366.76-21.85 364.89-20.73 363.01-19.6 361.96-17.53 360.92-15.45 360.92-12.5L360.92-12.5Q360.92-9.55 361.96-7.45 363.01-5.35 364.89-4.25 366.76-3.15 369.12-3.15L369.12-3.15Q372.87-3.15 375.09-5.68 377.31-8.2 377.31-12.5ZM406.56 0L403.11 0 402.81-4.5Q401.76-2.2 399.71-0.93 397.66 0.35 394.51 0.35L394.51 0.35Q391.81 0.35 389.91-0.5 388.01-1.35 386.99-2.93 385.96-4.5 385.96-6.65L385.96-6.65Q385.96-9.8 388.31-11.83 390.66-13.85 395.11-14.3L395.11-14.3 402.81-15.15 402.81-17.15Q402.81-19.25 401.26-20.53 399.71-21.8 397.06-21.8L397.06-21.8Q394.46-21.8 392.74-20.6 391.01-19.4 390.36-17.15L390.36-17.15 386.96-18.35Q387.96-21.65 390.64-23.5 393.31-25.35 397.16-25.35L397.16-25.35Q401.61-25.35 404.09-23.08 406.56-20.8 406.56-16.9L406.56-16.9 406.56 0ZM402.81-11.15L402.81-11.95 395.06-11.05Q392.56-10.75 391.26-9.68 389.96-8.6 389.96-6.85L389.96-6.85Q389.96-5.1 391.24-4.05 392.51-3 394.91-3L394.91-3Q397.66-3 399.41-4.1 401.16-5.2 401.99-7.08 402.81-8.95 402.81-11.15L402.81-11.15ZM413.86 0L413.86-36 417.61-36 417.61 0 413.86 0ZM437.95-7.45L441.6-8.9Q441.9-7.55 442.88-6.23 443.85-4.9 445.58-4.03 447.3-3.15 450-3.15L450-3.15Q453.85-3.15 455.7-4.95 457.55-6.75 457.55-9.2L457.55-9.2Q457.55-11.15 456.5-12.4 455.45-13.65 453.65-14.48 451.85-15.3 449.6-15.95L449.6-15.95Q447.6-16.5 445.63-17.18 443.65-17.85 442.05-18.88 440.45-19.9 439.5-21.55 438.55-23.2 438.55-25.65L438.55-25.65Q438.55-28.6 439.95-30.78 441.35-32.95 443.9-34.15 446.45-35.35 449.85-35.35L449.85-35.35Q452.8-35.35 455-34.5 457.2-33.65 458.68-32.13 460.15-30.6 460.85-28.6L460.85-28.6 457.3-27.25Q456.95-28.4 455.95-29.48 454.95-30.55 453.35-31.25 451.75-31.95 449.7-31.95L449.7-31.95Q447.7-31.95 446.08-31.25 444.45-30.55 443.5-29.25 442.55-27.95 442.55-26.1L442.55-26.1Q442.55-24.1 443.68-22.93 444.8-21.75 446.68-21.03 448.55-20.3 450.8-19.65L450.8-19.65Q452.85-19 454.78-18.25 456.7-17.5 458.23-16.4 459.75-15.3 460.65-13.65 461.55-12 461.55-9.6L461.55-9.6Q461.55-6.95 460.3-4.67 459.05-2.4 456.53-1.03 454 0.35 450.05 0.35L450.05 0.35Q446.75 0.35 444.25-0.68 441.75-1.7 440.15-3.45 438.55-5.2 437.95-7.45L437.95-7.45ZM467.95 0L467.95-36 471.7-36 471.7-21.6Q472.9-23.4 474.95-24.38 477-25.35 479.55-25.35L479.55-25.35Q482.3-25.35 484.45-24.1 486.6-22.85 487.83-20.4 489.05-17.95 489.05-14.3L489.05-14.3 489.05 0 485.05 0 485.05-13.85Q485.05-17.75 483.4-19.83 481.75-21.9 478.6-21.9L478.6-21.9Q475.35-21.9 473.53-19.7 471.7-17.5 471.7-13.3L471.7-13.3 471.7 0 467.95 0ZM507.1 0.35L507.1 0.35Q503.55 0.35 500.75-1.2 497.95-2.75 496.35-5.63 494.75-8.5 494.75-12.45L494.75-12.45Q494.75-16.45 496.38-19.35 498-22.25 500.82-23.8 503.65-25.35 507.2-25.35L507.2-25.35Q510.75-25.35 513.58-23.8 516.4-22.25 518.02-19.38 519.65-16.5 519.65-12.55L519.65-12.55Q519.65-8.55 518-5.65 516.35-2.75 513.5-1.2 510.65 0.35 507.1 0.35ZM507.05-3.2L507.05-3.2Q509.25-3.2 511.2-4.17 513.15-5.15 514.38-7.23 515.6-9.3 515.6-12.5L515.6-12.5Q515.6-15.75 514.4-17.8 513.2-19.85 511.27-20.83 509.35-21.8 507.15-21.8L507.15-21.8Q504.95-21.8 503.05-20.83 501.15-19.85 499.97-17.78 498.8-15.7 498.8-12.5L498.8-12.5Q498.8-9.25 499.95-7.2 501.1-5.15 502.97-4.17 504.85-3.2 507.05-3.2ZM529.15-5.05L529.15-5.05 529.55-5.1 529.55 10 525.8 10 525.8-25 529.25-25 529.5-20.35Q530.65-22.45 532.9-23.9 535.15-25.35 538.55-25.35L538.55-25.35Q541.8-25.35 544.4-23.78 547-22.2 548.5-19.33 550-16.45 550-12.5L550-12.5Q550-8.6 548.57-5.73 547.15-2.85 544.57-1.25 542 0.35 538.55 0.35L538.55 0.35Q534.95 0.35 532.6-1.2 530.25-2.75 529.15-5.05ZM545.95-12.5L545.95-12.5Q545.95-16.8 543.72-19.33 541.5-21.85 537.75-21.85L537.75-21.85Q535.4-21.85 533.52-20.75 531.65-19.65 530.6-17.55 529.55-15.45 529.55-12.5L529.55-12.5Q529.55-9.6 530.6-7.5 531.65-5.4 533.52-4.28 535.4-3.15 537.75-3.15L537.75-3.15Q541.5-3.15 543.72-5.68 545.95-8.2 545.95-12.5ZM559.44-5.05L559.44-5.05 559.84-5.1 559.84 10 556.09 10 556.09-25 559.54-25 559.79-20.35Q560.94-22.45 563.19-23.9 565.44-25.35 568.84-25.35L568.84-25.35Q572.09-25.35 574.69-23.78 577.29-22.2 578.79-19.33 580.29-16.45 580.29-12.5L580.29-12.5Q580.29-8.6 578.87-5.73 577.44-2.85 574.87-1.25 572.29 0.35 568.84 0.35L568.84 0.35Q565.24 0.35 562.89-1.2 560.54-2.75 559.44-5.05ZM576.24-12.5L576.24-12.5Q576.24-16.8 574.02-19.33 571.79-21.85 568.04-21.85L568.04-21.85Q565.69-21.85 563.82-20.75 561.94-19.65 560.89-17.55 559.84-15.45 559.84-12.5L559.84-12.5Q559.84-9.6 560.89-7.5 561.94-5.4 563.82-4.28 565.69-3.15 568.04-3.15L568.04-3.15Q571.79-3.15 574.02-5.68 576.24-8.2 576.24-12.5ZM587.14 0L587.14-25 590.84-25 590.84 0 587.14 0ZM589.04-30L589.04-30Q587.89-30 587.14-30.75 586.39-31.5 586.39-32.6L586.39-32.6Q586.39-33.75 587.14-34.5 587.89-35.25 589.04-35.25L589.04-35.25Q590.09-35.25 590.87-34.5 591.64-33.75 591.64-32.6L591.64-32.6Q591.64-31.5 590.87-30.75 590.09-30 589.04-30ZM599.29 0L599.29-25 602.74-25 602.94-21.45Q604.14-23.3 606.09-24.33 608.04-25.35 610.64-25.35L610.64-25.35Q613.49-25.35 615.64-24.13 617.79-22.9 618.99-20.48 620.19-18.05 620.19-14.4L620.19-14.4 620.19 0 616.44 0 616.44-13.95Q616.44-17.85 614.76-19.88 613.09-21.9 609.94-21.9L609.94-21.9Q606.69-21.9 604.86-19.75 603.04-17.6 603.04-13.4L603.04-13.4 603.04 0 599.29 0ZM646.39-20.35L646.64-25 650.09-25 650.09-4.6Q650.09 0 648.04 3.28 645.99 6.55 642.09 8.28 638.19 10 632.59 10L632.59 10 631.99 6.55Q639.04 6.45 642.69 3.63 646.34 0.8 646.34-4.6L646.34-4.6 646.34-5.15 646.74-5.05Q645.59-2.85 643.29-1.28 640.99 0.3 637.34 0.35L637.34 0.35Q633.89 0.35 631.31-1.23 628.74-2.8 627.31-5.7 625.89-8.6 625.89-12.5L625.89-12.5Q625.89-16.4 627.31-19.28 628.74-22.15 631.31-23.75 633.89-25.35 637.34-25.35L637.34-25.35Q639.59-25.35 641.34-24.68 643.09-24 644.34-22.88 645.59-21.75 646.39-20.35L646.39-20.35ZM629.94-12.5L629.94-12.5Q629.94-8.2 632.16-5.68 634.39-3.15 638.19-3.15L638.19-3.15Q640.49-3.15 642.34-4.25 644.19-5.35 645.26-7.45 646.34-9.55 646.34-12.5L646.34-12.5Q646.34-15.45 645.26-17.53 644.19-19.6 642.34-20.73 640.49-21.85 638.19-21.85L638.19-21.85Q634.44-21.85 632.19-19.3 629.94-16.75 629.94-12.5Z" opacity="1" transform="matrix(1,0,0,1,0,0)" fill="black" class="slogan-text-1" id="SvgjsPath9244"></path></svg></g></svg></g></svg></g></svg></g></svg></g><defs><mask></mask></defs></svg><rect width="395.52" height="133.95084573439794" fill="black" stroke="none" visibility="hidden"></rect></g></mask></svg><rect width="395.52" height="133.95084573439794" fill="black" stroke="none" visibility="hidden"></rect></g></mask><linearGradient x1="0.054" x2="0.941" y1="0.5" y2="0.5" id="494e4d9b-218e-49f9-a06a-be4b97f8c72c"><stop stop-color="#9c7945" offset="0"></stop><stop stop-color="#faf3aa" offset="0.498"></stop><stop stop-color="#9c7945" offset="1"></stop></linearGradient><rect width="395.52" height="133.95084573439794" fill="url(#494e4d9b-218e-49f9-a06a-be4b97f8c72c)" mask="url(#07280c87-f380-4f0d-bd06-f5e988cd67ca)" data-fill-palette-color="secondary"></rect></svg><rect width="395.52" height="133.95084573439794" fill="none" stroke="none" visibility="hidden"></rect></g></svg></g></svg>